<svg version="1.2" xmlns="http://www.w3.org/2000/svg" viewBox="0 0 1500 1000" width="1500" height="1000">
	<title>322-ai</title>
	<defs>
		<clipPath clipPathUnits="userSpaceOnUse" id="cp1">
			<path d="m1598.58-4.25v1077.61h-1652.95v-1077.61z"/>
		</clipPath>
		<clipPath clipPathUnits="userSpaceOnUse" id="cp2">
			<path d="m976.52-20.05c114.93 73.96 103.3 286.74-11.57 380.72-31.49 25.78-60.35 56.07-81.79 91.34-49.46 81.24-31.81 199.25-98.05 266.22-76.63 77.53-209.88 33.43-303.89 86.17-42.87 24.03-73.33 65.92-109 100.46-115.06 111.3-295.6 140.11-438.36 73.76v-998.67z"/>
		</clipPath>
		<linearGradient id="g1" x1="148.9" y1="612.3" x2="148.9" y2="-283.1" gradientUnits="userSpaceOnUse">
			<stop offset="0" stop-color="#a97db7"/>
			<stop offset=".1" stop-color="#d8728f"/>
			<stop offset="1" stop-color="#47469c"/>
		</linearGradient>
		<clipPath clipPathUnits="userSpaceOnUse" id="cp3">
			<path d="m-80.19 14.3h1179.24v1003.3h-1179.24z"/>
		</clipPath>
		<linearGradient id="g2" x1="1129.9" y1="-86.8" x2="1180.4" y2="376.6" gradientUnits="userSpaceOnUse">
			<stop offset="0" stop-color="#50c1bb"/>
			<stop offset="1" stop-color="#dfd4c9"/>
		</linearGradient>
		<linearGradient id="g3" x1="753" y1="-499.7" x2="840.3" y2="302.2" gradientUnits="userSpaceOnUse">
			<stop offset="0" stop-color="#50c1bb"/>
			<stop offset="1" stop-color="#dfd4c9"/>
		</linearGradient>
		<linearGradient id="g4" x1="393.6" y1="-181.3" x2="570.8" y2="598.3" gradientUnits="userSpaceOnUse">
			<stop offset="0" stop-color="#fefefe"/>
			<stop offset="1" stop-color="#dfd4c9" stop-opacity="0"/>
		</linearGradient>
		<linearGradient id="g5" x1="81.2" y1="-105.5" x2="145.5" y2="234.5" gradientUnits="userSpaceOnUse">
			<stop offset="0" stop-color="#fefefe"/>
			<stop offset="1" stop-color="#dfd4c9" stop-opacity="0"/>
		</linearGradient>
		<linearGradient id="g6" x1="661.6" y1="135.6" x2="707.6" y2="378.8" gradientUnits="userSpaceOnUse">
			<stop offset="0" stop-color="#fefefe"/>
			<stop offset="1" stop-color="#dfd4c9" stop-opacity="0"/>
		</linearGradient>
		<linearGradient id="g7" x1="928.3" y1="333.6" x2="882.3" y2="90.4" gradientUnits="userSpaceOnUse">
			<stop offset="0" stop-color="#fefefe"/>
			<stop offset="1" stop-color="#dfd4c9" stop-opacity="0"/>
		</linearGradient>
		<linearGradient id="g8" x1="341.5" y1="515.3" x2="371" y2="928" gradientUnits="userSpaceOnUse">
			<stop offset="0" stop-color="#bd67a8"/>
			<stop offset="1" stop-color="#703b83"/>
		</linearGradient>
		<linearGradient id="g9" x1="270.6" y1="1033.1" x2="413.3" y2="285.8" gradientUnits="userSpaceOnUse">
			<stop offset="0" stop-color="#647dbd"/>
			<stop offset="1" stop-color="#703b83"/>
		</linearGradient>
		<linearGradient id="g10" x1="-12.9" y1="697.1" x2="-88" y2="378" gradientUnits="userSpaceOnUse">
			<stop offset="0" stop-color="#5f55a4"/>
			<stop offset="1" stop-color="#f06244"/>
		</linearGradient>
		<linearGradient id="g11" x1="-75.3" y1="708" x2="-260.5" y2="152.5" gradientUnits="userSpaceOnUse">
			<stop offset="0" stop-color="#5f55a4"/>
			<stop offset="1" stop-color="#f06244"/>
		</linearGradient>
		<linearGradient id="g12" x1="476.8" y1="742.7" x2="476.8" y2="222" gradientUnits="userSpaceOnUse">
			<stop offset="0" stop-color="#5f55a4"/>
			<stop offset="1" stop-color="#ef4c46"/>
		</linearGradient>
		<linearGradient id="g13" x1="433.2" y1="623.6" x2="612.3" y2="124.7" gradientUnits="userSpaceOnUse">
			<stop offset="0" stop-color="#57429a"/>
			<stop offset="1" stop-color="#ef4c46"/>
		</linearGradient>
		<linearGradient id="g14" x1="612.2" y1="796.1" x2="606.2" y2="196.5" gradientUnits="userSpaceOnUse">
			<stop offset="0" stop-color="#5f55a4"/>
			<stop offset="1" stop-color="#f06244"/>
		</linearGradient>
		<linearGradient id="g15" x1="616.4" y1="821.4" x2="686.7" y2="-33.7" gradientUnits="userSpaceOnUse">
			<stop offset="0" stop-color="#57429a"/>
			<stop offset="1" stop-color="#ef4c46"/>
		</linearGradient>
		<linearGradient id="g16" x1="740.4" y1="636.5" x2="805.8" y2="298.1" gradientUnits="userSpaceOnUse">
			<stop offset="0" stop-color="#453694"/>
			<stop offset="1" stop-color="#ef4c46" stop-opacity="0"/>
		</linearGradient>
		<linearGradient id="g17" x1="477.4" y1="786.1" x2="563.3" y2="341.9" gradientUnits="userSpaceOnUse">
			<stop offset="0" stop-color="#453694"/>
			<stop offset="1" stop-color="#ef4c46" stop-opacity="0"/>
		</linearGradient>
		<linearGradient id="g18" x1="550.4" y1="686.5" x2="550.4" y2="1047.7" gradientUnits="userSpaceOnUse">
			<stop offset="0" stop-color="#c27172"/>
			<stop offset=".4" stop-color="#647dbd"/>
			<stop offset="1" stop-color="#703b83"/>
		</linearGradient>
		<radialGradient id="g19" cx="559.8" cy="862.3" r="991.7" gradientUnits="userSpaceOnUse">
			<stop offset="0" stop-color="#53c5d1"/>
			<stop offset="1" stop-color="#0b070d"/>
		</radialGradient>
		<radialGradient id="g20" cx="542.4" cy="743" r="398.7" gradientUnits="userSpaceOnUse">
			<stop offset="0" stop-color="#53c5d1"/>
			<stop offset="1" stop-color="#0b070d"/>
		</radialGradient>
		<linearGradient id="g21" x1="1030.4" y1="684.1" x2="1030.4" y2="1047.1" gradientUnits="userSpaceOnUse">
			<stop offset="0" stop-color="#a08272"/>
			<stop offset=".4" stop-color="#1ebccc"/>
			<stop offset="1" stop-color="#255090"/>
		</linearGradient>
		<linearGradient id="g22" x1="-11.5" y1="1037.1" x2="-11.5" y2="674" gradientUnits="userSpaceOnUse">
			<stop offset="0" stop-color="#a08272"/>
			<stop offset=".4" stop-color="#1ebccc"/>
			<stop offset="1" stop-color="#255090"/>
		</linearGradient>
		<linearGradient id="g23" x1="492.7" y1="791.4" x2="492.7" y2="914.1" gradientUnits="userSpaceOnUse">
			<stop offset="0" stop-color="#f2cf5b"/>
			<stop offset=".4" stop-color="#fdece0"/>
			<stop offset="1" stop-color="#a7798b"/>
		</linearGradient>
		<linearGradient id="g24" x1="453" y1="387" x2="560.7" y2="1180.3" gradientUnits="userSpaceOnUse">
			<stop offset="0" stop-color="#1ebccc"/>
			<stop offset="1" stop-color="#255090"/>
		</linearGradient>
		<linearGradient id="g25" x1="530.2" y1="377.7" x2="530.2" y2="1184.3" gradientUnits="userSpaceOnUse">
			<stop offset="0" stop-color="#927cb8"/>
			<stop offset="1" stop-color="#220a12"/>
		</linearGradient>
		<linearGradient id="g26" x1="227" y1="377.7" x2="227" y2="1184.3" gradientUnits="userSpaceOnUse">
			<stop offset="0" stop-color="#927cb8"/>
			<stop offset="1" stop-color="#220a12"/>
		</linearGradient>
		<linearGradient id="g27" x1="197.7" y1="377.7" x2="197.7" y2="1184.3" gradientUnits="userSpaceOnUse">
			<stop offset="0" stop-color="#927cb8"/>
			<stop offset="1" stop-color="#220a12"/>
		</linearGradient>
		<linearGradient id="g28" x1="188.7" y1="377.7" x2="188.7" y2="1184.3" gradientUnits="userSpaceOnUse">
			<stop offset="0" stop-color="#927cb8"/>
			<stop offset="1" stop-color="#220a12"/>
		</linearGradient>
		<linearGradient id="g29" x1="228.5" y1="377.7" x2="228.5" y2="1184.3" gradientUnits="userSpaceOnUse">
			<stop offset="0" stop-color="#927cb8"/>
			<stop offset="1" stop-color="#220a12"/>
		</linearGradient>
	</defs>
	<style>
		tspan { white-space:pre } 
		.s0 { fill: url(#g1) } 
		.s1 { opacity: .1;fill: url(#g2) } 
		.s2 { opacity: .1;fill: url(#g3) } 
		.s3 { opacity: .6;fill: url(#g4) } 
		.s4 { opacity: .6;fill: url(#g5) } 
		.s5 { opacity: .6;fill: url(#g6) } 
		.s6 { opacity: .6;fill: url(#g7) } 
		.s7 { fill: url(#g8) } 
		.s8 { fill: url(#g9) } 
		.s9 { fill: url(#g10) } 
		.s10 { fill: url(#g11) } 
		.s11 { fill: url(#g12) } 
		.s12 { opacity: .8;fill: url(#g13) } 
		.s13 { fill: url(#g14) } 
		.s14 { opacity: .4;fill: url(#g15) } 
		.s15 { opacity: .7;fill: url(#g16) } 
		.s16 { fill: url(#g17) } 
		.s17 { fill: url(#g18) } 
		.s18 { opacity: .2;mix-blend-mode: color-dodge;fill: url(#g19) } 
		.s19 { opacity: .6;mix-blend-mode: screen;fill: url(#g20) } 
		.s20 { opacity: .3;mix-blend-mode: multiply;fill: url(#g21) } 
		.s21 { opacity: .3;mix-blend-mode: multiply;fill: url(#g22) } 
		.s22 { opacity: .3;mix-blend-mode: soft-light;fill: url(#g23) } 
		.s23 { opacity: .7;fill: #ffffff } 
		.s24 { opacity: .5;fill: url(#g24) } 
		.s25 { fill: url(#g25) } 
		.s26 { fill: url(#g26) } 
		.s27 { fill: url(#g27) } 
		.s28 { fill: url(#g28) } 
		.s29 { fill: url(#g29) } 
		.s30 { fill: #fffdf6 } 
	</style>
	<g id="OBJECTS">
		<g id="&lt;Group&gt;">
			<g id="&lt;Group&gt;">
				<g id="&lt;Group&gt;">
					<g id="&lt;Group&gt;">
						<g id="&lt;Group&gt;">
							<g id="&lt;Clip Group&gt;" clip-path="url(#cp1)">
								<g id="&lt;Clip Group&gt;" clip-path="url(#cp2)">
									<g id="&lt;Group&gt;">
										<path id="&lt;Path&gt;" class="s0" d="m-80.2-48h1179.2v922.2h-1179.2z"/>
										<g id="&lt;Clip Group&gt;" clip-path="url(#cp3)">
											<g id="&lt;Group&gt;">
												<g id="&lt;Group&gt;">
													<path id="&lt;Path&gt;" class="s1" d="m532.2 646c59-1.5 117.1-40.4 143.2-110.3 10-26.7 24.1-63 46.5-55.4 7 2.3 13 9 20.2 8.8 22.2-0.7 13.9-52.5 32.4-68.1 6.8-5.8 15.7-5 23.6-7.4 28.7-8.8 37.7-53.9 54.6-84.6 20.7-37.6 60.1-56.6 95.1-46.1 22.9 6.9 51.6 22.8 66.1-0.8 9.1-14.7 5.6-36.5 11.9-53.4 11.4-30 45.8-30.1 70.5-41.8v668.6q-4.4 1.2-8.8 2.3h-266.2c-15.2-2.4-30.4-4.9-45.5-7.3q-56.5-9.3-113.1-18.6c-46.5-7.7-95.1-16.3-133.3-51-21.4-19.3-39.7-53-41.2-87.1-2.2-49.7 13.3-47 44-47.8z"/>
												</g>
												<g id="&lt;Group&gt;">
													<path id="&lt;Path&gt;" class="s2" d="m-339.7 1051.2v-1079.3h111.9c1.7 10.7 2.2 21.9 5.6 32.3 23.9 72.4 152.8 40.7 185.1 109.6 12.4 26.4 5.6 60.7 23.2 83.7 28.3 37 84.3 12.1 128.9 1.3 68.2-16.6 144.8 13.3 185.2 72.2 33 48.3 50.4 119 106.3 132.7 15.5 3.8 32.8 2.6 46.1 11.6 36 24.5 19.9 105.7 63.1 106.8 13.9 0.4 25.8-10.1 39.3-13.8 43.8-11.9 71.2 45 90.7 86.9 50.9 109.6 164 170.7 279 173 59.7 1.3 90-2.9 85.7 74.9-2.9 53.5-38.7 106.4-80.3 136.7-74.5 54.3-169.2 67.9-259.8 79.9q-110.1 14.5-220.3 29.1c-29.5 3.9-59 7.8-88.6 11.5h-518.7c-61.6-12.3-122.3-29.3-182.4-49.1z"/>
													<path id="&lt;Path&gt;" class="s3" d="m-147.7 243.7c11.8 11.3 22.2 25.9 36.2 31.8 21.7 9.1 53.4 0 61.5 27.2 2.2 7.2 1.6 15.4 3.6 22.8 9.4 35.6 60.5 20 73.2 53.9 4.9 12.9 2.2 29.8 9.2 41.1 11.2 18.2 33.4 5.9 51 0.6 27-8.1 57.3 6.6 73.2 35.5 13.1 23.7 20 58.5 42.1 65.3 6.2 1.8 13 1.2 18.2 5.6 14.3 12.1 7.9 52 25 52.6 5.5 0.1 10.2-5 15.6-6.8 17.3-5.9 28.1 22.1 35.8 42.7 20.2 53.8 64.9 83.8 110.4 85 23.6 0.6 35.6-1.5 33.9 36.8-1.1 26.3-15.3 52.3-31.7 67.2-29.5 26.6-67 33.3-102.8 39.2q-43.6 7.2-87.2 14.4c-69.4 11.4-139.6 22.8-209.1 11.9-54.4-8.5-106.7-30.4-158.1-55z"/>
												</g>
												<g id="&lt;Group&gt;">
													<path id="&lt;Path&gt;" class="s4" d="m-146.7 245.1c-4.4 0-4.7-8.3-0.4-8.7q0.4 0 0.9 0c6.8 0 16-11.7 34.3-11.7 13.7 0 14.6-4.9 14.2-7.4-0.2-1-0.1-2.1 0.3-3l15.2-33.4c0 0 6.9-14.6 13.8-20.4 6.8-5.9 6.8-8.8 34.3-26.3 27.5-17.5 9.2 0 41.2 8.7 31.9 8.8 11.6 3 31.8 14.5q0.2 0.1 0.4 0.3c1.5 1.1 11.8 9 18.1 14.4 6.9 5.9 18.3-2.9 25.2-8.7 6.9-5.9 13.7-2.9 29.7-5.9 16.1-2.9 13.8 3 27.5 17.6 13.7 14.6 16 17.5 29.8 23.3 13.7 5.9 11.4 2.9 20.5 8.8 9.2 5.8 18.4 2.9 30.9 2.2 12.6-0.6 28.6-8.1 42.4 0.7 10 6.4 12.7 14.4 13.4 18.2 0.3 1.4 1.2 2.6 2.3 3.1l18.1 7.7q0.5 0.2 1.1 0.2h31.1q0.3 0 0.7 0.1l31 8.8c4 1.1 3.3 8.6-0.8 8.6h-5.4c-6.9 0-27.5-2.9-37.4-0.7-10 2.3-74.7-5.1-88.5-5.1-13.7 0-80 0-107.5 2.9-27.5 2.9-45.8-5.8-59.5-2.9-13.7 2.9-34.3-11.7-52.6-8.8-18.3 2.9-45.8 2.9-45.8 2.9z"/>
													<path id="&lt;Path&gt;" class="s5" d="m498.5 386.5c-3.1 0-3.4-6-0.3-6.3q0.3 0 0.6 0c5 0 11.5-8.4 24.6-8.4 9.8 0 10.4-3.5 10.1-5.3-0.1-0.7 0-1.4 0.3-2.1l10.9-23.9c0 0 4.9-10.5 9.8-14.6 4.9-4.2 4.9-6.3 24.6-18.8 19.6-12.6 6.5 0 29.4 6.2 22.9 6.3 8.3 2.1 22.8 10.4q0.2 0.1 0.3 0.2c1 0.8 8.4 6.5 13 10.3 4.9 4.2 13.1-2.1 18-6.2 4.9-4.2 9.8-2.1 21.2-4.2 11.5-2.1 9.9 2.1 19.7 12.5 9.8 10.5 11.5 12.6 21.3 16.7 9.8 4.2 8.2 2.1 14.7 6.3 6.6 4.2 13.1 2.1 22.1 1.6 9-0.5 20.5-5.8 30.3 0.5 7.2 4.6 9.1 10.3 9.6 13 0.2 1 0.8 1.9 1.6 2.2l13 5.5q0.4 0.2 0.8 0.2h22.2q0.3 0 0.5 0.1l22.2 6.2c2.9 0.8 2.4 6.2-0.5 6.2h-3.9c-4.9 0-19.7-2.1-26.8-0.5-7.1 1.6-53.4-3.7-63.3-3.7-9.8 0-57.3 0-76.9 2.1-19.7 2.1-32.7-4.2-42.6-2.1-9.8 2.1-24.5-8.3-37.6-6.2-13.1 2.1-32.8 2.1-32.8 2.1z"/>
													<path id="&lt;Path&gt;" class="s6" d="m1012.4 159.1c0 0-19.6 0-32.7-2.1-13.1-2-27.8 8.4-37.7 6.3-9.8-2.1-22.9 4.2-42.5 2.1-19.7-2.1-67.2-2.1-77-2.1-9.8 0-56.1 5.3-63.2 3.7-7.2-1.6-21.9 0.5-26.8 0.5h-3.9c-2.9 0-3.4-5.4-0.5-6.2l22.1-6.3q0.3 0 0.6 0h22.2q0.4 0 0.8-0.2l12.9-5.5c0.8-0.3 1.4-1.2 1.6-2.2 0.6-2.8 2.5-8.5 9.7-13 9.8-6.3 21.3-1 30.3-0.5 9 0.5 15.5 2.6 22.1-1.6 6.5-4.2 4.9-2.1 14.7-6.3 9.8-4.2 11.5-6.3 21.3-16.7 9.8-10.5 8.2-14.6 19.6-12.5 11.5 2 16.4 0 21.3 4.1 4.9 4.2 13.1 10.5 18 6.3 4.6-3.9 11.9-9.5 13-10.3q0.1-0.1 0.2-0.2c14.6-8.3 0-4.1 22.8-10.4 23-6.3 9.9-18.8 29.5-6.3 19.6 12.6 19.6 14.7 24.6 18.8 4.9 4.2 9.8 14.7 9.8 14.7l10.9 23.9c0.3 0.6 0.4 1.4 0.2 2.1-0.3 1.8 0.3 5.3 10.2 5.3 13.1 0 19.6 8.4 24.5 8.4q0.3 0 0.7 0c3 0.3 2.8 6.2-0.3 6.2z"/>
												</g>
												<path id="&lt;Path&gt;" class="s7" d="m610.1 827l-556.6-30.1-96.7-102.3 30.7-72.3c0 0 96.7-6 108.5-9 11.8-3 89.6-12 115.5-12 26 0 56.6-6.1 70.8-9.1 14.1-3 44.8-9 54.2-9 9.5 0 37.8 12 63.7 21.1 25.9 9 63.7 24.1 70.8 27.1 7 3 51.8 18 75.4 21 23.6 3 103.8 3 103.8 3z"/>
												<path id="&lt;Path&gt;" class="s8" d="m843.8 496.8l89.4 101.5-61.3 228.7-948.1-60.2-2.3-96.3 66-48.2c0 0 141.5 0 186.3 0 44.8 0 80.2-3 103.8-3 23.6 0 40.1 15.1 68.4 12.1 28.3-3 42.4-3 77.8 3 35.4 6 40.1 9 77.8-3 37.7-12.1 47.2-42.2 66-45.2 18.9-3 56.6-12 84.3-35.3 23.1-19.4 144.9-44.8 184.2-52.6 7.7-1.5 12.2-2.4 12.2-2.4"/>
												<path id="&lt;Path&gt;" class="s9" d="m-144.5 488.9c39.6-1.4 88-1.3 106.1 4 30.6 9 77.8 12.1 108.4 24.1 30.7 12 33.1 18.1 61.4 39.1 28.3 21.1 54.2 24.1 70.7 39.1 16.5 15.1 42.5 21.1 75.5 36.2 33 15 101.4 75.2 101.4 75.2l-113.2 105.3c0 0-256.3 3-410.3-1.4z"/>
												<path id="&lt;Path&gt;" class="s10" d="m-144.5 488.9c39.6-1.4 88-1.3 106.1 4 29.5 8.7 74.3 11.8 104.9 22.8-17.1 1.8-31 9.6-31.8 28.4-2.4 51.1 94.3 12 155.6 90.3 38.7 49.3 73.6 102.3 114.3 141.5l-38.8 36c0 0-256.3 3-410.3-1.4z"/>
												<g id="&lt;Group&gt;">
													<path id="&lt;Path&gt;" class="s11" d="m845.9 538.1l-63.6 186.6-245.3 36.1 18.9-45.2 16.5-48.1 21.2-42.2 18.9-57.1v-69.3l33-42.1h25.9l28.3-21.1 51.9-15 54.2-24.1z"/>
													<path id="&lt;Path&gt;" class="s12" d="m807.5 583l-84.9 116.4-154.1 34.1 7.9-36.1 14.1-32.1 17.3-26.1 11-38.1 11.1-58.2 1.5 42.1-7.8 36.2 23.5-32.1 4.8-38.2 14.1-18 6.3-42.2 31.5-24.1 39.3-10 45.6-22.1z"/>
													<path id="&lt;Path&gt;" class="s13" d="m593.6 679.5l14.1-27.1 30.7-27.1 33-42.1 9.4-39.1 28.3-48.2 63.7-45.1 30.7-69.2 51.9-54.2 37.7-9 30.7 12 30.6 21.1 44.8 3 35.6-2.9v376.3l-127.5-9.3-358 18.3 23.1-33.3z"/>
													<path id="&lt;Path&gt;" class="s14" d="m549.3 736.9l23.1-33.3 21.2-24.1 14.1-27.1 30.7-27.1 33-42.1 5.9-24.5 36.6-2.6 58.9-15 35.4-36.1 44.8-21.1 37.7-21.1 26-15 54.2-6 42.5-57.2 21.4-14.4v357.7l-127.5-9.3z"/>
													<path id="&lt;Path&gt;" class="s15" d="m624.2 706.6c9.5 0 18.9-30.1 18.9-30.1l35.4-9 47.2 21h61.3l49.5-30 40.1-39.2 40.1-27.1 23.6-33.1 61.3-18 33.2-22.1v208.9l-127.5-9.3-209.5 10.8-106.6-4.7c0 0 23.6-18.1 33-18.1z"/>
												</g>
												<path id="&lt;Path&gt;" class="s16" d="m1099 807.1l-674.6 31.1-504.6-69.8v-91.1c27.1 2.3 53.2 4.4 56.5 4.4 7.1 0 106.1 6 113.2 6 7.1 0 103.8 9 115.6 9 11.7 0 87.2-12 94.3-12 7.1 0 193.4 0 193.4 0 0 0 68.4 15 75.4 15 7.1 0 103.8-6 103.8-6 0 0 162.7-3 169.8 0 7.1 3 113.2-3 113.2-3l144 10.9z"/>
												<g id="&lt;Group&gt;">
													<path id="&lt;Path&gt;" class="s17" d="m-80.2 706.6h1179.2v311h-1179.2z"/>
													<g id="&lt;Group&gt;">
														<path id="&lt;Path&gt;" class="s18" d="m810.3 985.7c31.5 14.4 64.3 25.4 98.6 32.9h-1006.1c35.9-2.4 71.8-4.4 107.5-8.4 26.7-3.1 56.6-6.7 79.4-18.8 4.3-2.3 3.9-6.4 0-8.7-14.3-8.5-31.1-13.6-48.5-16.6-85.9-14.5-174.6 8.9-259.9 15.2-27.9 2.1-56.8 1.7-84.7-0.1-14.1-0.9-84-7.7-53.4-28.9 25.4-17.6 66.2-17.7 97.7-23.3 62.7-11.2 127-16.6 191.1-19.8 62.7-3 125.5-2 188.2-4.7 25.8-1.2 52.3-6.8 76.7-13.1 13.6-3.4 50.8-11.2 49.5-26.6-0.6-7.7-12-11.8-19.9-14.3-21.4-6.8-45.3-8.9-68.3-9.1-54.1-0.4-107.4 9.7-160.6 16.4-24.4 3.1-48.8 4.2-73.4 6.1-24.3 1.9-49.2 4.2-73.7 2.2-14-1.2-29-3.9-38.7-12.4-12.1-10.7 6.7-15.7 17.8-18.8 29.5-8.3 60.9-9.4 92.1-9.9 64.6-1.2 128.2-9.1 192.4-14.4 64.9-5.3 130.8-7.2 193.8-21.5 11.2-2.5 44.1-9 38.4-22.9-3.1-7.5-14.8-10.4-23.5-11.7-18.1-2.6-37.1-1.6-55.4-0.5-35.9 2.2-72.2 5.9-107.8 10.1-23.7 2.8-47.4 5.7-71.3 6.4-18.8 0.5-41.4 0.6-58.2-7.3 27.6-10 59-14.1 88.8-17.6 28.6-3.4 58.3-7 87.2-7.8 27.3-0.7 54.6 1.8 81.9 0.7 18.4-0.7 42.1-2.2 53.9-14.8 1.2-1.3-0.2-2.8-1.7-3.3-32.1-9.4-67.3-1.3-100.7-3.2 7.4-4.7 15.7-8.4 24.6-11.2h539.6c-13.2 10.8-35.9 11.2-50.1 21.4-2.1 1.5-1.8 4.1 0 5.6 28.5 24.3 84 18.6 121.7 17.5 36.8-1.1 99-7.3 121 22.2-25.6 9.7-55.6 11.9-83.6 13.7-24.5 1.5-49.3 3.5-73.9 4.1-36 0.8-92.6-3.6-114.8 24.3-1.3 1.6-0.4 3.5 1.5 4.5 14.6 7.6 32 10.5 49.2 11.6 42.5 2.9 85.1-3.9 127.1-8.2 59.6-6 120.6-3.2 180.4-1.8 40.1 1 80.6-0.4 120.6 1.6 10.6 0.5 30.2 0.4 38.5 6.6 10.2 7.7-13.8 19.5-20.6 22.8-35.4 17.3-81.3 20.7-122 22.9-42.2 2.2-84.5 1.5-126.7 2.7-25.2 0.7-50 1.3-75.2 0-29-1.6-57.8-4.4-86.8-6.4-28.4-1.9-57.1-3-85.6-0.9-19.5 1.4-41.9 2.7-59.9 9.4-12.1 4.6-20.5 12.9-13.9 23.4 6.4 10.2 21.6 15 34.8 18 34.1 7.6 71.1 6.7 106.3 6.5 59.5-0.3 119.4-6.1 178.7-9.9 63.6-4 127.2-7.7 191.1-8.6 30.9-0.4 61.4-1.9 92.4-3.2 32.9-1.4 68.1-3 100.3 3.4 10.1 2 23.7 5.3 28 13.6 3.4 6.4 1 14.1-4.6 19.2-15.2 13.9-46.1 16.9-67.7 19-57.2 5.5-114.8 1.7-172.1 0.2-12.6-0.3-24.9 0.6-37.4 1.1-33 1.5-66 2.4-99 3.3-63.4 1.8-126.7 4-189.5 10.8-5.8 0.6-5.9 7.3-1.6 9.3z"/>
														<path id="&lt;Path&gt;" class="s19" d="m400.8 770c-25.3-1.6-50.8-2.1-76.2-2.6-13.3-0.2-26.6-0.4-39.8-0.7-5-0.2-10-0.4-15-0.3-23.1 0.4-46.3 1.3-69.2-0.1-8.7-0.5-21.2-1.2-27.3-4.4-2.2-1.3-3.2-3.1-1.8-4.6 1.7-2 7.2-2.7 11.2-3.2 13-1.5 27.2-1.1 40.4-0.8 12.4 0.3 24.7 0.6 37.1 0.7 25.7 0.3 51.3 1.1 76.8 2.1 23.9 0.9 48 2.2 71.9 2.3 14.1 0.1 29 0.3 42.7-1.5 5.3-0.7 11.4-1.9 14-4.3 2.7-2.5-0.7-4.4-5.6-5.5-7.2-1.6-16.2-1.9-24.1-2.3-11.4-0.4-22.9-0.2-34.4 0.3-11.6 0.4-23.2 1.1-34.9 1.5-10.1 0.3-20.1 0.2-30.2 0-17-0.3-34-0.1-50.9-0.7-16.4-0.5-34.8-1.3-49.1-5.4-2.7-0.8-12.4-3.6-8.3-5.4 3.4-1.5 11.3-1.4 15.5-1.5 16.1-0.5 32.4-0.2 48.5-0.4 24-0.4 48.6-1 72.5 0.4 16.9 1 34 2.6 51.1 2 6.9-0.3 13.9-1 19.8-2.8 0.8-0.2 1.1-0.7 0.6-1.1-8.9-6.6-31.7-5.5-46.1-5.7-9.9-0.1-19.9-0.6-29.7-1-11.3-0.4-23.4-0.9-33.7-3.2 8.9-7 33.9-5.5 48.7-5.3 15.1 0.3 37.5 1.6 48.9-4.1 0.7-0.4 0.9-1 0-1.3-5.7-2.5-14.8-2.6-20.1-5.1h216.9c3.6 0.7 6.9 1.5 9.9 2.6-13.4 0.5-27.6-1.4-40.5 0.8-0.6 0.1-1.1 0.5-0.7 0.8 4.8 3 14.3 3.3 21.7 3.5 11 0.2 21.9-0.4 32.9-0.2 11.7 0.2 23.6 1.1 35.1 1.9 12 0.8 24.6 1.8 35.7 4.1-6.8 1.9-15.8 1.9-23.4 1.8-9.6-0.2-19.2-0.9-28.7-1.6-14.3-1-28.9-1.8-43.3-2.4-7.4-0.2-15-0.5-22.3 0.2-3.5 0.3-8.2 1-9.4 2.7-2.3 3.3 10.9 4.9 15.4 5.5 25.3 3.4 51.8 3.8 77.9 5 25.8 1.3 51.4 3.2 77.4 3.4 12.5 0.2 25.1 0.4 37 2.4 4.4 0.7 12 1.9 7.1 4.4-3.9 2.1-9.9 2.7-15.5 3-9.9 0.5-19.9-0.1-29.7-0.5-9.8-0.5-19.6-0.8-29.5-1.5-21.3-1.6-42.8-4-64.5-3.9-9.3 0.1-18.9 0.6-27.5 2.2-3.2 0.6-7.7 1.5-8 3.4-0.5 3.6 14.4 5.5 19.9 6.3 9.8 1.5 20.5 2.8 30.9 3.1 25.1 0.6 50.4 0.4 75.6 1.1 25.8 0.7 51.6 2 76.9 4.7 12.6 1.3 29 1.3 39.2 5.5 12.3 5-15.8 6.6-21.4 6.8-11.3 0.4-22.9 0.6-34.1 0.1-34.3-1.5-69.9-7.1-104.5-3.6-7 0.7-13.7 1.9-19.5 3.9-1.5 0.5-1.7 1.5 0 2 9.2 2.9 21.2 3.8 31.9 4.5 14.4 0.9 28.8 1.4 43.3 2h-404.5q20.6-2.7 39.6-7.8c1.7-0.5 1.7-2.1-0.6-2.2z"/>
														<path id="&lt;Path&gt;" class="s20" d="m551.5 1000.7c0.8-2.8 2.2-5.2 4.4-6.3 60.1-28.8 128.8-29.8 197-36.3 63.9-6.1 128.4-9.3 192.8-9.7 59.2-0.3 119.8 7.4 178.6 0.6 19.4-2.3 42.1-9.2 45-24.1 1.7-9-5-17.9-13.4-24.5-17.3-13.5-40.7-19.7-64.2-24.2-13.7-2.6-35.7 5.1-46.7-1.5 3.5 2.1 67.2-4 75.6-3.7 55.8 1.7 129.4 0.8 173.8-32.6 10.1-7.7 17.5-18.3 15.9-29.1-1.7-11.2-12.8-20.5-25.9-25.7-21.2-8.6-48.2-10.1-71.7-12.3-22.4-2.1-109.2 1.6-129.8-4.8 55.6-13.2 157.9-11.1 197.2-11.1 20.5 0 50.3-0.2 65.6-12.5 18-14.4-12.9-26.5-27.5-30.2-34-8.8-68.7-1.4-103.2-3.8 2.8-1.7 5.7-3.2 8.7-4.6h170.2v312.6c0 0-833.9 0-835.8 0-6 0-8.3-9.4-6.6-16.2z"/>
														<path id="&lt;Path&gt;" class="s21" d="m460.8 1016.9c-1.9 0-835.8 0-835.8 0v-312.6h170.1c3 1.4 6 2.9 8.7 4.6-34.5 2.4-69.2-5-103.2 3.8-14.6 3.7-45.4 15.8-27.4 30.2 15.3 12.3 45 12.5 65.6 12.5 39.3 0 141.5-2.1 197.1 11.1-20.5 6.4-107.3 2.7-129.7 4.8-23.5 2.2-50.5 3.7-71.8 12.3-13 5.2-24.1 14.5-25.8 25.7-1.7 10.8 5.8 21.4 15.9 29.1 44.4 33.4 117.9 34.3 173.8 32.6 8.3-0.3 72.1 5.8 75.5 3.7-11 6.6-33-1.1-46.7 1.5-23.4 4.5-46.9 10.7-64.2 24.2-8.4 6.6-15.1 15.5-13.3 24.5 2.9 14.9 25.6 21.8 45 24.1 58.8 6.8 119.3-0.9 178.5-0.6 64.5 0.4 128.9 3.6 192.9 9.7 68.1 6.5 136.9 7.5 196.9 36.3 2.2 1.1 3.7 3.5 4.4 6.3 1.8 6.8-0.6 16.2-6.5 16.2z"/>
														<path id="&lt;Path&gt;" class="s22" d="m-63.8 876c11.4-8.4 27.6 1.1 43.9-0.5 26.5-2.7 33.4-6.7 89.5-6.7 55.1 0 101 2.4 156.1 1.2 4.5 0 9.6-0.4 12.3-3.4 3.5-3.8 0.7-9.8-4.1-12.3-4.7-2.6-10.7-2.6-16.3-2.6-158.9 0.3-317.7 0.2-476.6 0.2-11.9 0-16.9-8.1-7.5-11.9 65.7-26.8 359.2-19.5 538.5-14.7 16.1 0.5 18-12.2 2-13.1-118.9-6.8-272.9 0.9-401.4 5.5-16 0.6-18.4-12-2.6-13.2 318.3-23.1 1092.2-12.4 1361.5 6.6 15.3 1.1 13.8 13.2-1.7 13.2h-389.1c-6.8 0-12.4 2.9-12.4 6.6v1.8c0 3.6 5.5 6.5 12.4 6.6 42.5 0.1 97 3.2 129.1 2.5-84.1 0-259.9-11.9-370.9-4.3-16 1.1-13.7 13.8 2.4 13.2 142.2-5.4 363.7-14.5 368.5 30.3 5.4 50.1-373.6 28-458.8 28-193.3 0-385 1.3-577.9 4.7-6.9 0.1-12.7-2.8-12.8-6.5-0.5-13.6 5.9-23.8 15.9-31.2z"/>
													</g>
													<path id="&lt;Path&gt;" class="s23" d="m360.8 788.8c1.7 0 3.1 1.8 3.1 4.1 0 2.2-1.4 4-3.1 4-1.7 0-3.2-1.8-3.2-4 0-2.3 1.5-4.1 3.2-4.1z"/>
													<path id="&lt;Path&gt;" class="s24" d="m-80.2 876.1c46.7 8.6 98.4 26.3 167.3 43.3 146.3 36.2 219.4-24 441.1-30.1 221.6-6 153.2 42.2 379.6 0 108.7-20.2 163.5-21 191.2-16.4v144.7h-1179.2z"/>
												</g>
												<path id="&lt;Path&gt;" class="s25" d="m-80.2 796.2q6 1.3 11.7 2.8c56.6 15.1 33 33.2 63.7 45.2 30.6 12 44.8 33.1 91.9 42.1 47.2 9.1 70.8-21 120.3-6 49.5 15.1 82.6 9 139.2 3 56.6-6 49.5 3 73.1 6 23.6 3.1 58.9 12.1 73.1 9.1 14.1-3 47.1-9.1 89.6-27.1 42.4-18.1 23.6-12.1 49.5-15.1 26-3 66.1-12 115.6-27.1 49.5-15 96.7 9.1 113.2 12.1 16.5 3 63.7-42.2 132-30.1 52.7 9.3 91.3 32.8 106.3 43.1v163.4h-1179.2z"/>
												<g id="&lt;Group&gt;">
													<path id="&lt;Path&gt;" class="s26" d="m248.4 673.2q0 0 0 0c-0.8 2-2.7 3.4-4.9 2.3-11.4-5.4-23.4-8.1-35.3-8.4q-0.2 0.1-0.5 0.1c-13.1-0.3-26.1 2.4-38.3 7.7q0 0 0 0c-7.6 3.3-14.9 7.6-21.6 12.8q-1.3 1-2.6 2.1-0.1 0.1-0.1 0.1-3.9 3.2-7.5 6.8-0.1 0.1-0.2 0.2-2.4 2.4-4.7 5-0.1 0.1-0.2 0.2-1 1.2-2 2.4-0.1 0.1-0.2 0.3-2.1 2.5-4.1 5.3-0.2 0.2-0.4 0.5-0.9 1.2-1.7 2.4-0.1 0.2-0.3 0.4-0.9 1.4-1.8 2.8-0.1 0.2-0.3 0.4-0.7 1.2-1.5 2.5-0.2 0.3-0.4 0.7-0.7 1.3-1.4 2.6-0.2 0.2-0.3 0.4-0.8 1.4-1.5 2.9-0.2 0.4-0.4 0.8-0.6 1.2-1.2 2.4-0.2 0.4-0.4 0.8-0.7 1.6-1.4 3.1-0.2 0.6-0.6 1-0.2 0.3-0.5 0.5c-0.5 0.4-1.1 0.7-1.7 0.8q-0.2 0.1-0.4 0.1-0.3 0.1-0.7 0-0.5 0-1-0.3-9.6-4.7-19.3-9.4c2.9 5 5.4 10.3 7.5 15.9 0.8 2.5 0.6 6-1.7 7.1-9.6 4.7-18.7 10.5-27.2 17.2q0.1 0.1 0.2 0.2l-5.6 4.4c-11.9 10.5-22.4 22.9-31.3 37.1q-3 4.7-5.7 9.6 0 0 0 0.1-0.9 1.6-1.8 3.3-0.1 0.1-0.1 0.2-0.9 1.6-1.6 3.1-0.2 0.4-0.4 0.7-0.7 1.4-1.3 2.8-0.3 0.6-0.6 1.3-0.5 1.1-1 2.2-0.7 1.4-1.3 2.8-0.1 0.4-0.3 0.7c-0.3 0.7-0.8 1.3-1.3 1.7-0.6 0.4-1.3 0.7-1.9 0.7q-0.3 0-0.5 0c-5.4-0.5-19.9-1.9-32.3-3q-0.1 0-0.3 0-0.7-0.1-1.5-0.1c-6.7-0.7-12.5-1.2-15.5-1.5 5.3 4.8 31.6 17.1 43 17.9 2.2 0.1-0.3 3.4-1.7 5.8-3.9 6.2-6.6 13.1-8.7 20.3-1.1 10.7-5.3 31.5-15.3 48.1-5.8 10.6-13.9 19.4-23.5 24.8-20.1 13.1-52 17.8-77.4-22.8-9.1 29.6-10.6 65.1-14 57.1-2.5-6.1 3.2-36.8 9.4-61.4q-0.1-0.1-0.3-0.1c-10.8-0.5-49-17.6-33.9-91.7 0 0 0 1.1 0.1 3.1 2.4-12.5 6.9-24.1 12.5-35l0.2-2.1q0 0.9 0 1.8 1-2 2.1-3.9 0.2-0.5 0.5-0.9 0.4-0.8 0.9-1.6 0.3-0.6 0.6-1.1 0.4-0.7 0.9-1.5 0.3-0.5 0.6-1.1 0.5-0.7 1-1.5 0.3-0.5 0.6-1.1 0.5-0.7 0.9-1.4 0.4-0.6 0.8-1.1 0.4-0.7 0.9-1.4 0.3-0.6 0.7-1.1 0.8-1.2 1.6-2.4 0.4-0.6 0.9-1.3 0.4-0.6 0.8-1.2 0.5-0.6 0.9-1.3 0.4-0.5 0.9-1.1 0.4-0.7 0.9-1.3 0.4-0.6 0.8-1.1 0.5-0.7 0.9-1.3 0.4-0.5 0.8-1.1 0.5-0.6 1-1.3 0.4-0.5 0.8-1 0.6-0.7 1.1-1.5 0.3-0.4 0.6-0.8 0.9-1.1 1.7-2.1 0.1-0.1 0.1-0.1c0.6-0.8 1.3-1 1.9-0.7 1 0.4 2 1.8 2.7 3.5q0 0.2 0.1 0.3 0.2 0.4 0.3 0.8 0.1 0.3 0.2 0.7 0.1 0.4 0.2 0.7 0.1 0.4 0.2 0.8c1.2 7 4.1 12.1 7.3 17.3q1.3 2.1 2.7 4.4 0.9 1.4 1.9 3c0.3-14 2.7-27.7 7-40.5q1.2-3.6 2.6-7.1 0-0.1 0.1-0.1 1.3-3.4 2.9-6.8 0.1-0.1 0.1-0.2 1.5-3.2 3.2-6.3 0.1-0.2 0.3-0.5 0.5-0.9 1.1-1.9 0-0.1 0.1-0.2 1-1.8 2.1-3.6 0.3-0.4 0.5-0.7 0.5-0.9 1.1-1.7 0.3-0.4 0.6-0.9 0.8-1.2 1.7-2.5 0.4-0.5 0.8-1.1 0.5-0.7 1-1.3 0.5-0.7 1.1-1.4 0.6-0.9 1.3-1.7 0.6-0.7 1.1-1.4 0.5-0.5 0.9-1 0.8-0.9 1.6-1.8 0.4-0.5 0.9-1 0.7-0.7 1.5-1.5 0.4-0.4 0.8-0.8 0.9-1 1.9-2 0.3-0.2 0.6-0.5 0.9-0.8 1.8-1.6 0.4-0.3 0.7-0.7 1.1-0.9 2.3-1.9 0.1-0.1 0.2-0.2 1.1-0.8 2.2-1.7 0.3-0.2 0.7-0.5 1.2-0.9 2.4-1.7 0-0.1 0.1-0.1 1.2-0.8 2.4-1.6 0.4-0.2 0.7-0.4 1.3-0.8 2.6-1.6c1.2-0.7 2.3-0.7 3.4-0.2q0.3 0.2 0.6 0.4 0.6 0.4 1.2 1c0.9 0.9 1.7 2.4 2.4 4.1q0.2 0.4 0.3 0.8c0.6 1.6 1.2 3.3 1.8 5.1q0.1 0.5 0.2 0.9c1.6 5.2 3.2 10.5 5.3 12.8q-0.3-1-0.6-2-0.1-0.2-0.1-0.3-0.3-0.8-0.5-1.6-0.1-0.2-0.1-0.3-0.3-0.8-0.5-1.6 0-0.1-0.1-0.3-0.2-0.8-0.4-1.6 0-0.1-0.1-0.1-0.2-0.9-0.4-1.7 0-0.1 0-0.1-0.2-0.9-0.4-1.7c-2.9-14.5-0.1-25 8.5-33.8 11.3-11.6 22.8-26.6 35.6-36.3q0.2-0.9 0.5-1.9l7.4-3.2c5.5-3 11.7-6.3 18.3-9.4q0.1-0.1 0.2-0.1 0.4-0.2 0.9-0.4 0.1-0.1 0.2-0.1 1.6-0.8 3.3-1.5 0 0 0 0 0.5-0.2 0.9-0.4 0.2-0.1 0.4-0.2 0.4-0.2 0.8-0.3 0.2-0.1 0.4-0.2 0.5-0.2 0.9-0.4 0.1 0 0.3-0.1 1-0.4 2-0.8 0 0 0.1 0 0.4-0.2 0.8-0.4 0.2-0.1 0.5-0.1 0.4-0.2 0.8-0.3 0.2-0.1 0.5-0.2 0.4-0.2 0.8-0.3 0.2-0.1 0.5-0.2 0.4-0.2 0.8-0.3 0.3-0.1 0.6-0.2 0.6-0.2 1.2-0.5 0.4-0.1 0.7-0.2 0.3-0.1 0.7-0.2 0.3-0.1 0.6-0.2 0.4-0.1 0.7-0.2 0.3-0.1 0.7-0.2 0.3-0.1 0.6-0.2 0.5-0.2 1-0.3 0.4-0.1 0.8-0.2 0.4-0.1 0.8-0.2 0.3-0.1 0.6-0.2 0.4-0.1 0.8-0.2 0.3-0.1 0.6-0.2 0.4 0 0.8-0.1 0.2-0.1 0.5-0.2 0.5-0.1 1-0.2 0.3 0 0.6-0.1 0.5-0.1 1.1-0.2 0.2-0.1 0.5-0.1 0.4-0.1 0.8-0.2 0.3 0 0.6-0.1 0.4 0 0.8-0.1 0.3 0 0.5-0.1 0.5 0 1-0.1 0.2 0 0.4 0 0.6-0.1 1.3-0.2 0.2 0 0.4 0 0.5-0.1 0.9-0.1 0.3 0 0.5-0.1 0.4 0 0.9 0 0.2 0 0.5 0 0.4-0.1 0.9-0.1 0.2 0 0.4 0 0.6 0 1.3 0 0.1 0 0.3 0 0.5 0 1 0 0.2 0 0.5 0 0.4 0 0.8 0.1 0.3 0 0.5 0 0.4 0 0.9 0.1 0.2 0 0.4 0 0.6 0.1 1.3 0.1 0 0 0.1 0 0.6 0.1 1.2 0.2 0.2 0 0.4 0.1 0.4 0 0.8 0.1 0.3 0.1 0.5 0.1 0.4 0.1 0.8 0.2 0.3 0 0.5 0.1 0.5 0.1 1 0.2 0.1 0.1 0.2 0.1 0.6 0.1 1.2 0.3 0.2 0.1 0.4 0.1 0.4 0.2 0.9 0.3 0.2 0.1 0.4 0.2 0.4 0.1 0.8 0.3 0.2 0.1 0.4 0.1 0.5 0.2 0.9 0.4 0.2 0.1 0.3 0.1 0.6 0.3 1.2 0.6 0.1 0 0.3 0.1 0.4 0.2 0.9 0.5 0.2 0.1 0.4 0.2 0.4 0.2 0.7 0.4 0.2 0.1 0.4 0.2 0.5 0.3 0.9 0.5 0.1 0.1 0.3 0.2 0.5 0.4 1.1 0.8 0.1 0.1 0.2 0.1 0.4 0.4 0.9 0.7 0.2 0.1 0.4 0.3 0.3 0.3 0.7 0.6 0.2 0.1 0.4 0.3 0.3 0.3 0.7 0.6 0.2 0.2 0.3 0.3 0.6 0.5 1.1 1 0-8.8 1.7-17.5c0.3-1.7 1.7-3.4 3.1-3.6 52.8-7.3 107.8 18.7 143.4 68.5 1.3 1.8 1.4 4.3 0.6 6.2q0 0 0 0z"/>
													<path id="&lt;Path&gt;" class="s27" d="m50.1 538.1q0 0-0.1 0c-0.1 1.5-0.9 2.9-2.5 3-8.1 0.3-16 2.3-23.4 5.9q-0.2 0.1-0.3 0.2c-8.1 3.9-15.6 9.7-22.1 16.8q-0.1 0-0.1 0c-4 4.4-7.6 9.3-10.8 14.7q-0.6 1-1.2 2.1 0 0-0.1 0.1-1.7 3.2-3.3 6.5 0 0.1-0.1 0.2-1 2.2-1.9 4.5 0 0.1 0 0.2-0.4 1.1-0.8 2.1-0.1 0.1-0.1 0.3-0.8 2.2-1.5 4.5-0.1 0.3-0.2 0.5-0.3 1-0.5 2-0.1 0.2-0.1 0.3-0.3 1.2-0.6 2.3-0.1 0.2-0.1 0.4-0.2 1-0.4 2-0.1 0.3-0.2 0.6-0.2 1-0.4 2 0 0.1 0 0.3-0.2 1.2-0.4 2.3-0.1 0.3-0.1 0.6-0.2 0.9-0.3 1.8 0 0.4-0.1 0.7-0.1 1.2-0.2 2.3-0.1 0.5-0.2 0.8-0.1 0.3-0.3 0.5-0.3 0.6-0.8 1.1-0.1 0-0.2 0.1-0.2 0.1-0.5 0.2-0.3 0.2-0.6 0.2-6.9 0.1-13.8 0.2c2.8 2.2 5.3 4.7 7.7 7.5 1 1.3 1.5 3.5 0.3 4.9-5 5.9-9.5 12.3-13.4 19.2q0.1 0 0.2 0l-2.7 4.5c-5.3 10.2-9.4 21.2-12.2 32.7q-0.9 3.8-1.6 7.7 0 0 0 0-0.2 1.3-0.5 2.6 0 0.1 0 0.2-0.2 1.2-0.4 2.5 0 0.2-0.1 0.5-0.1 1-0.2 2.1-0.1 0.5-0.2 1-0.1 0.8-0.2 1.7-0.1 1-0.2 2.1 0 0.3-0.1 0.6c0 0.5-0.2 1-0.5 1.4-0.2 0.4-0.6 0.8-1 1q-0.1 0.1-0.3 0.2c-3.4 1.3-12.6 5.1-20.4 8.3q-0.2 0-0.3 0.1-0.4 0.2-0.9 0.3c-4.3 1.8-8 3.3-9.9 4 4.2 1.3 22.8 0.6 30-2.5 1.4-0.6 0.5 2.3 0.1 4.2-1.2 5-1.6 10.1-1.5 15.2 1.4 7 2.8 21.1-0.1 34.5-1.6 8.4-4.9 16.3-9.8 22.7-9.8 14.3-28.6 27.3-52.1 10.2 0.1 21.1 6 43.5 2.4 39.6-2.7-3-5.1-23.7-6-40.8q-0.1 0-0.2 0c-6.8 3.1-33.6 4.6-38.6-45.9 0 0 0.2 0.7 0.6 1.9-0.9-8.4-0.4-17 1-25.5l-0.3-1.4q0.1 0.6 0.3 1.1 0.3-1.5 0.6-3 0-0.4 0.1-0.8 0.1-0.6 0.3-1.2 0.1-0.4 0.1-0.9 0.2-0.6 0.3-1.2 0.1-0.4 0.2-0.9 0.1-0.6 0.3-1.2 0.1-0.4 0.2-0.8 0.1-0.6 0.3-1.2 0.1-0.5 0.2-0.9 0.1-0.6 0.3-1.2 0.1-0.4 0.2-0.9 0.3-1 0.5-2 0.2-0.5 0.3-1 0.2-0.5 0.3-1 0.2-0.6 0.3-1.1 0.2-0.5 0.3-1 0.2-0.5 0.3-1 0.2-0.5 0.3-1 0.2-0.5 0.4-1.1 0.1-0.4 0.2-0.9 0.2-0.6 0.4-1.1 0.2-0.5 0.3-0.9 0.2-0.6 0.4-1.2 0.1-0.4 0.2-0.7 0.3-1 0.7-1.9 0 0 0-0.1c0.2-0.7 0.6-1 1-1 0.7-0.1 1.6 0.5 2.3 1.3q0.1 0.1 0.2 0.2 0.2 0.2 0.3 0.4 0.1 0.1 0.3 0.3 0.1 0.2 0.2 0.4 0.2 0.2 0.3 0.4c2.1 4 4.9 6.2 7.9 8.4q1.2 0.9 2.5 1.9 0.8 0.6 1.7 1.3c-2.5-8.8-3.7-18-3.5-27.2q0.1-2.7 0.3-5.3 0 0 0 0 0.2-2.6 0.5-5.1 0-0.1 0-0.2 0.3-2.4 0.8-4.9 0-0.2 0-0.4 0.2-0.7 0.3-1.5 0.1-0.1 0.1-0.1 0.3-1.5 0.6-2.9 0.1-0.3 0.2-0.7 0.1-0.6 0.3-1.3 0.1-0.4 0.2-0.7 0.3-1.1 0.6-2.1 0.1-0.5 0.3-1 0.1-0.5 0.3-1.1 0.2-0.6 0.4-1.2 0.3-0.7 0.5-1.4 0.2-0.6 0.4-1.2 0.2-0.5 0.4-1 0.3-0.8 0.6-1.5 0.2-0.5 0.4-0.9 0.3-0.8 0.6-1.5 0.2-0.3 0.3-0.7 0.4-0.9 0.9-1.8 0.1-0.3 0.2-0.5 0.4-0.8 0.8-1.6 0.2-0.3 0.3-0.6 0.5-1 1.1-1.9 0-0.1 0.1-0.2 0.5-0.9 1-1.7 0.1-0.3 0.3-0.6 0.6-0.9 1.2-1.8 0 0 0-0.1 0.6-0.9 1.2-1.7 0.2-0.3 0.3-0.5 0.7-0.9 1.3-1.8c0.6-0.8 1.3-1.1 2.1-1.2q0.2 0 0.4 0.1 0.5 0 1 0.2c0.7 0.3 1.5 1 2.3 1.8q0.1 0.2 0.3 0.4c0.7 0.8 1.4 1.7 2.1 2.6q0.1 0.2 0.3 0.5c2 2.6 3.9 5.5 5.7 6.2q-0.4-0.5-0.8-1 0-0.1-0.1-0.2-0.3-0.4-0.6-0.8-0.1-0.1-0.1-0.2-0.3-0.4-0.6-0.8-0.1-0.1-0.1-0.2-0.3-0.4-0.6-0.8 0-0.1-0.1-0.1-0.3-0.5-0.5-0.9 0 0-0.1 0-0.3-0.5-0.5-1c-4.6-8-4.9-15.4-1.3-23.5 4.7-10.6 8.9-23.6 14.9-33.5q0-0.7 0-1.4l3.9-4.3c2.8-3.5 6-7.5 9.5-11.5q0-0.1 0.1-0.1 0.2-0.3 0.5-0.6 0.1-0.1 0.1-0.1 0.8-1 1.7-2 0 0 0 0 0.3-0.2 0.5-0.5 0.1-0.1 0.2-0.2 0.2-0.3 0.5-0.5 0.1-0.1 0.2-0.2 0.2-0.3 0.4-0.5 0.1-0.1 0.2-0.2 0.5-0.6 1.1-1.1 0-0.1 0-0.1 0.2-0.2 0.5-0.4 0.1-0.2 0.2-0.3 0.2-0.2 0.5-0.4 0.1-0.2 0.2-0.3 0.3-0.2 0.5-0.4 0.1-0.2 0.3-0.3 0.2-0.2 0.4-0.4 0.1-0.2 0.3-0.4 0.4-0.3 0.7-0.6 0.2-0.2 0.4-0.4 0.2-0.1 0.3-0.3 0.2-0.2 0.4-0.3 0.2-0.2 0.4-0.4 0.2-0.2 0.4-0.3 0.1-0.2 0.3-0.4 0.3-0.2 0.6-0.4 0.2-0.2 0.4-0.4 0.3-0.2 0.5-0.4 0.2-0.2 0.3-0.3 0.2-0.2 0.5-0.4 0.1-0.1 0.3-0.3 0.2-0.1 0.4-0.3 0.2-0.1 0.4-0.3 0.2-0.2 0.5-0.4 0.2-0.1 0.4-0.3 0.3-0.2 0.6-0.4 0.1-0.1 0.3-0.3 0.2-0.1 0.5-0.3 0.1-0.1 0.3-0.2 0.2-0.2 0.5-0.4 0.1-0.1 0.3-0.2 0.3-0.2 0.6-0.4 0.1-0.1 0.2-0.1 0.4-0.3 0.8-0.5 0.1-0.1 0.2-0.2 0.3-0.2 0.6-0.3 0.1-0.1 0.3-0.2 0.2-0.2 0.5-0.3 0.1-0.1 0.3-0.2 0.3-0.1 0.5-0.3 0.2-0.1 0.3-0.1 0.4-0.2 0.8-0.4 0.1-0.1 0.2-0.1 0.3-0.2 0.6-0.3 0.1-0.1 0.3-0.2 0.3-0.1 0.5-0.2 0.2-0.1 0.3-0.2 0.3-0.1 0.6-0.2 0.1-0.1 0.3-0.1 0.4-0.2 0.8-0.3 0 0 0.1-0.1 0.3-0.1 0.7-0.2 0.1-0.1 0.3-0.1 0.2-0.1 0.5-0.2 0.2 0 0.3-0.1 0.3-0.1 0.6-0.1 0.1-0.1 0.3-0.1 0.3-0.1 0.7-0.2 0 0 0.1 0 0.4-0.1 0.8-0.2 0.1 0 0.2 0 0.3-0.1 0.6-0.1 0.2-0.1 0.3-0.1 0.3 0 0.6 0 0.1-0.1 0.3-0.1 0.3 0 0.6 0 0.1 0 0.2 0 0.4-0.1 0.8-0.1 0.1 0 0.2 0 0.4 0 0.7 0 0.1 0 0.3 0 0.2 0 0.5 0 0.2 0.1 0.3 0.1 0.3 0 0.6 0 0.1 0 0.3 0 0.4 0.1 0.8 0.2 0.1 0 0.1 0 0.4 0 0.7 0.1 0.2 0 0.3 0.1 0.3 0 0.6 0.1 0.1 0 0.3 0.1 0.2 0 0.5 0.1 0.2 0.1 0.3 0.1 0.4 0.1 0.8 0.3-1.6-5.5-2.3-11.4c-0.1-1.1 0.4-2.5 1.2-3.1 31.2-21.1 70.1-22.3 101.7-2.8 1.2 0.7 1.7 2.2 1.5 3.6q0.1 0 0.1 0z"/>
													<g id="&lt;Group&gt;">
														<path id="&lt;Path&gt;" class="s28" d="m-48.7 972.1c0.9-4 5-15.6 11.8-30.5 1.3-10.8-9-39-12.4-46.5-2.3-5.2-3.3-10.5-3.7-15.3-1.4-10-0.1-18.4 1.1-19.3 0.4-2.8 1.4-6 3.1-9.3 1.6-0.7 0.7 6.6 2.3 12.2 0.7 3.3 1.4 6.6 1.6 9.2 5.7 9.2 12.4 19.6 13.2 27.9 0.9 10.9-0.8 28.3-1.2 32.4 4.7-9.9 10.3-20.8 16.8-31.7-0.9-2.6-2.6-7.7-3.7-12.4-1.6-6.2-3.2-13.4-3.5-19-0.7-10.8-2-27.8-0.9-38.3 0.2-3.4 0.6-5.5 1.1-5.6 2.2-0.1 8.5 19.5 11.9 36.5 2 9.7 0.3 21.5-1.5 29.8-0.1 1.2-0.3 2.7-0.5 4.1 6.2-10.2 13.1-20.3 20.5-29.5-0.8-2.8-1.9-7.6-2.6-12-1.2-6.4-2.3-13.7-2.2-19.3 0-10.8-0.1-28 1.8-38.2 0.4-3.4 0.9-5.5 1.5-5.5 2.1 0.1 7 20.3 9.3 37.7 1.3 9.8-1.2 21.4-3.6 29.5-0.2 1-0.5 2.3-0.7 3.5 7.5-8.8 15.5-16.6 23.9-22.5-0.5-3-1.1-7-1.4-10.8-0.7-6.5-1.2-13.8-0.8-19.4 0.9-10.8 2-27.9 4.6-37.9 0.7-3.3 1.4-5.3 1.9-5.2 2.2 0.3 5.6 21 6.5 38.6 0.6 9.9-2.8 21.1-5.7 28.9-0.2 0.9-0.6 2.1-0.9 3.2 7.7-4.5 15.4-8.4 23.1-11.7 5.5-9.9 9.6-36.8 10.4-44.8 0.5-6 2.2-11 4.1-15.1 3.5-9.2 8.5-15 9.8-14.8 1.7-1.9 3.9-3.8 6.8-5.2 1.6 0.7-2.5 5.9-3.8 11.7-0.9 3.1-2 6.3-3 8.5 0.4 11.8 1 25.2-2.3 32.5-4 8.9-12.6 20.8-15.5 24.6 9.9-3.8 19.6-6.7 29.1-8.9 0.6-2.9 1.5-7.6 2.7-11.7 1.5-6.3 3.6-13.2 5.9-18 4.4-9.2 11.2-24 17-31.6 1.7-2.6 3-4 3.5-3.7 1.8 1.5-2.2 22.1-7.3 38.4-2.9 9.3-9.7 17.6-15 23-0.6 0.7-1.4 1.7-2.1 2.6 12-2.4 23.6-3.6 34.6-4 7.1-4.6 17.4-17 20.4-21.2 2.5-3.5 5.3-5.7 8-7.2 5.5-3.7 10.7-4.5 11.4-3.6 1.8-0.2 3.9-0.2 6.2 0.7 0.8 1.3-3.7 2.2-6.5 5.1-1.7 1.5-3.5 2.9-5 3.7-3.9 7.6-8.3 16.5-13 19.1-2.1 1.3-4.7 2.4-7.3 3.3q7.9 0.2 15.2 0.9c0.2-0.5 0.4-0.9 0.4-0.9 0 0 9.7-10.7 16.5-15 4.5-2.9 12.7-1.7 19.8-0.8 1.4-0.8 3.4-1.7 5.4-2.5 3.5-1 6.9-4.8 7.2-3.2-0.9 2.8-2.2 4.9-3.4 6.5 0 1.3-3.8 5.9-9.5 9-2.6 1.7-5.7 3.1-9.4 3.4-3.4 0.2-12.6 1.7-20 4.3 6 0.7 11.6 1.6 16.8 2.6l1.1-1.5c0 0 2.4-1.4 3.7-2.1 4.3-3.1 10.5-6.6 16.1-6.6 10 0.1 21.8 2.3 22.1 4.2 0.1 0.5-1 1.2-2.8 2-5.6 2.9-15.2 4.7-21.2 6-2.4 0.5-5.4 0.5-8.3 0.3 3.8 1 7.3 1.9 10.4 2.8-9.6-1.9-24.4-3.5-46.7-3q-0.7 0.7-1.1 1.5 0.3-0.6 0.7-1.5c-7.9 0.2-16.8 0.6-26.8 1.3 3.8 1.4 12.1 4.8 17.1 8.4 4.5 3.2 8.2 12.5 11.6 20.6 1.4 1 3.1 2.6 4.6 4.3 2.7 3.2 7 4.6 6.2 5.9-2.4 0.5-4.5 0.4-6.2-0.1-0.8 0.8-5.9-0.6-11.1-5-2.6-1.8-5.3-4.3-7.5-8-3.1-5.3-15.4-22.9-21.9-25.5-8.5 0.8-17.7 1.7-27.7 3 4.8 0.7 11 2.4 15.4 6.4 8 7.5 16.6 17.9 16 19.7-0.2 0.5-1.4 0.2-3.2-0.5-5.8-1.7-14.4-7.3-19.8-10.8-2.9-1.8-6.2-5-9-8-2.1-2-4.2-4.6-5.3-6.1-12.5 1.9-24 5.5-34.4 10.3 6.4-0.9 17.1-3.6 20.9-1.7 3.7 1.8 7.3 6.8 10.4 12.4 2.8 2 6 4.8 8.1 8 4.1 6.4 10.6 7.8 13.9 10.2-1.6 0.8-3.3 1-4.8 1-5.9 1.8-14-2.8-26.9-15.2-13-12.5-27.1-11.9-27.3-11.8-11.9 6.3-22.4 14.2-31.6 23.2 3.5 0 16.9 0.1 25.1 2.6 6.4 2 13.6 11.8 20 20.2 2 0.6 4.5 1.8 6.9 3.1 4.2 2.8 10 2.6 9.3 4.6-2.8 1.7-5.5 2.5-7.7 2.7-0.8 1.3-7.5 1.9-15.1-1.1-3.7-1.1-7.7-3-11.5-6.6-4.8-4.6-21.8-18.4-31.5-21.1-10.9 11.5-20 24.3-27.4 37 1-0.3 3.5-1 4.9-1.3 6.5-2.7 15.6-5.3 23.3-3.3 13.5 3.7 29.1 10.8 29.1 13.6-0.1 0.7-1.7 1.2-4.4 1.6-8.1 2-21.5 1-30 0.6-4.4-0.2-10.1-1.9-15-3.7-3.8-1.2-7.8-3.1-9.9-4.1-7.3 13-12.9 25.8-17.1 37 1.8-1.2 5.3-3.6 8-5.7q1.6-1.2 3.1-2.4 0.4-0.3 0.4-0.3-0.2 0.1-0.4 0.3c3.6-2.7 7-4.9 9.1-5.1 3.9-0.3 8.8 2.4 13.5 5.8 3.2 0.4 7 1.3 9.9 3.1 5.8 3.7 12.2 1.6 16 2-1.2 1.6-2.7 2.6-4.1 3.4-4.7 4.8-13.6 4.8-29.4 0.3-11-3.1-20.3-0.3-25.2 1.8-0.9 0.5-1.9 1.1-2.7 1.7-6.6 18.4-9.2 31.3-9.2 31.3 0 0-12.6 9.1-11.5-3.4z"/>
														<path id="&lt;Path&gt;" class="s29" d="m214.3 819.5q-1.5-0.5-3.1-1 1.9 0.4 3.6 0.8c1.7-0.7 6.5-2.3 9.7-1.5 4.1 1.1 14.9 12.1 14.9 12.1-1.9 0.5-12.8-1.5-17.8-3.9-4.9-2.4-7.6-6.4-7.6-6.4q0.1 0 0.3-0.1z"/>
													</g>
												</g>
											</g>
										</g>
										<g id="&lt;Group&gt;" style="mix-blend-mode: overlay">
											<path id="&lt;Path&gt;" class="s30" d="m764.1 64.8c3.9 0 7 3.1 7 7 0 3.8-3.1 6.9-7 6.9-3.8 0-6.9-3.1-6.9-6.9 0-3.9 3.1-7 6.9-7z"/>
											<path id="&lt;Path&gt;" class="s30" d="m660.4 208.4c2.3 0 4.1 1.8 4.1 4.1 0 2.2-1.8 4-4.1 4-2.2 0-4.1-1.8-4.1-4 0-2.3 1.9-4.1 4.1-4.1z"/>
											<path id="&lt;Path&gt;" class="s30" d="m322.6 33c2.3 0 4.1 1.9 4.1 4.1 0 2.3-1.8 4.1-4.1 4.1-2.2 0-4.1-1.8-4.1-4.1 0-2.2 1.9-4.1 4.1-4.1z"/>
											<path id="&lt;Path&gt;" class="s30" d="m572.9 339.5c2.3 0 4.1 1.8 4.1 4.1 0 2.3-1.8 4.1-4.1 4.1-2.3 0-4.1-1.8-4.1-4.1 0-2.3 1.8-4.1 4.1-4.1z"/>
											<path id="&lt;Path&gt;" class="s30" d="m440.4 246.6c2.2 0 4.1 1.8 4.1 4.1 0 2.3-1.9 4.1-4.1 4.1-2.3 0-4.1-1.8-4.1-4.1 0-2.3 1.8-4.1 4.1-4.1z"/>
											<path id="&lt;Path&gt;" class="s30" d="m988.7 253.9c2.2 0 4.1 1.8 4.1 4.1 0 2.3-1.9 4.1-4.1 4.1-2.3 0-4.1-1.8-4.1-4.1 0-2.3 1.8-4.1 4.1-4.1z"/>
											<path id="&lt;Path&gt;" class="s30" d="m443.8 87.7c2.3 0 4.1 1.8 4.1 4.1 0 2.3-1.8 4.1-4.1 4.1-2.2 0-4.1-1.8-4.1-4.1 0-2.3 1.9-4.1 4.1-4.1z"/>
											<path id="&lt;Path&gt;" class="s30" d="m847.5 159.2c2.2 0 4 1.8 4 4.1 0 2.2-1.8 4.1-4 4.1-2.3 0-4.1-1.9-4.1-4.1 0-2.3 1.8-4.1 4.1-4.1z"/>
											<path id="&lt;Path&gt;" class="s30" d="m53.8 60.8c2.3 0 4.1 1.9 4.1 4.1 0 2.3-1.8 4.1-4.1 4.1-2.2 0-4.1-1.8-4.1-4.1 0-2.2 1.9-4.1 4.1-4.1z"/>
											<path id="&lt;Path&gt;" class="s30" d="m78.1 318.5c2.3 0 4.1 1.9 4.1 4.1 0 2.3-1.8 4.1-4.1 4.1-2.3 0-4.1-1.8-4.1-4.1 0-2.2 1.8-4.1 4.1-4.1z"/>
											<path id="&lt;Path&gt;" class="s30" d="m429.6 518.3c2.3 0 4.1 1.8 4.1 4.1 0 2.2-1.8 4.1-4.1 4.1-2.2 0-4.1-1.9-4.1-4.1 0-2.3 1.9-4.1 4.1-4.1z"/>
											<path id="&lt;Path&gt;" class="s30" d="m350.3 361.9c0.9 0 1.6 0.7 1.6 1.6 0 0.8-0.7 1.5-1.6 1.5-0.8 0-1.5-0.7-1.5-1.5 0-0.9 0.7-1.6 1.5-1.6z"/>
											<path id="&lt;Path&gt;" class="s30" d="m758.1 600.3c0.9 0 1.5 0.7 1.5 1.5 0 0.9-0.6 1.5-1.5 1.5-0.8 0-1.5-0.6-1.5-1.5 0-0.8 0.7-1.5 1.5-1.5z"/>
											<path id="&lt;Path&gt;" class="s30" d="m148.1 144.2c0.8 0 1.5 0.6 1.5 1.5 0 0.8-0.7 1.5-1.5 1.5-0.9 0-1.6-0.7-1.6-1.5 0-0.9 0.7-1.5 1.6-1.5z"/>
											<path id="&lt;Path&gt;" class="s30" d="m220.2 356.8c0.8 0 1.5 0.7 1.5 1.5 0 0.8-0.7 1.5-1.5 1.5-0.9 0-1.6-0.7-1.6-1.5 0-0.8 0.7-1.5 1.6-1.5z"/>
										</g>
									</g>
								</g>
							</g>
						</g>
					</g>
				</g>
			</g>
		</g>
	</g>
</svg>